<?xml version="1.0" encoding="UTF-8"?>
<!DOCTYPE svg PUBLIC "-//W3C//DTD SVG 1.1//EN" "http://www.w3.org/Graphics/SVG/1.1/DTD/svg11.dtd">
<svg xmlns="http://www.w3.org/2000/svg" version="1.1" width="879px" height="788px" style="shape-rendering:geometricPrecision; text-rendering:geometricPrecision; image-rendering:optimizeQuality; fill-rule:evenodd; clip-rule:evenodd" xmlns:xlink="http://www.w3.org/1999/xlink">
<g><path style="opacity:1" fill="#454444" d="M 401.5,23.5 C 401.833,23.5 402.167,23.5 402.5,23.5C 402.328,24.4916 402.662,25.1583 403.5,25.5C 415.445,50.0562 428.945,73.7228 444,96.5C 452.743,110.144 462.576,122.977 473.5,135C 471.941,136.756 470.274,136.756 468.5,135C 461.048,129.883 453.882,124.383 447,118.5C 446.505,120.473 446.338,122.473 446.5,124.5C 446.322,128.122 446.989,131.456 448.5,134.5C 451.724,145.696 455.724,156.696 460.5,167.5C 464.98,168.521 469.647,169.187 474.5,169.5C 483.815,172.815 490.148,179.148 493.5,188.5C 493.167,189.5 492.5,190.167 491.5,190.5C 488.08,187.068 484.413,184.068 480.5,181.5C 478.71,180.003 476.544,179.336 474,179.5C 471.179,179.408 468.679,180.074 466.5,181.5C 459.357,185.908 452.357,190.575 445.5,195.5C 445.977,196.478 446.643,197.311 447.5,198C 452.744,200.685 458.077,202.852 463.5,204.5C 464.263,205.268 465.263,205.768 466.5,206C 455.486,206.619 444.486,206.453 433.5,205.5C 420.939,202.72 409.939,197.054 400.5,188.5C 399.713,186.896 398.38,186.229 396.5,186.5C 396.205,188.735 396.539,190.735 397.5,192.5C 399.578,198.55 400.911,204.884 401.5,211.5C 401.854,214.494 400.854,215.494 398.5,214.5C 392.602,206.262 385.936,198.595 378.5,191.5C 378.167,192.167 377.833,192.833 377.5,193.5C 381.644,208.982 382.478,224.648 380,240.5C 378.004,250.189 372.837,257.522 364.5,262.5C 362.181,263.167 359.847,263.334 357.5,263C 358.252,262.329 358.586,261.496 358.5,260.5C 361.598,256.303 363.598,251.637 364.5,246.5C 366.017,242.44 366.684,238.107 366.5,233.5C 366.646,228.576 365.979,223.909 364.5,219.5C 362.515,210.592 360.848,201.592 359.5,192.5C 358.832,186.822 357.998,181.155 357,175.5C 356.617,174.944 356.117,174.611 355.5,174.5C 354.852,172.914 354.352,171.247 354,169.5C 352.521,173.417 351.354,177.417 350.5,181.5C 349.252,180.666 348.585,179.333 348.5,177.5C 349.201,173.192 349.534,168.859 349.5,164.5C 351.054,160.433 351.72,156.1 351.5,151.5C 351.5,151.167 351.5,150.833 351.5,150.5C 352.895,146.409 353.562,142.076 353.5,137.5C 353.748,131.013 354.748,124.68 356.5,118.5C 358.011,115.456 358.678,112.122 358.5,108.5C 363.128,79.6566 371.628,51.99 384,25.5C 386.36,20.7596 389.193,16.4263 392.5,12.5C 394.011,11.4975 395.678,10.8308 397.5,10.5C 396.663,15.6361 397.997,19.9695 401.5,23.5 Z"/></g>
<g><path style="opacity:1" fill="#74665e" d="M 401.5,15.5 C 400.637,14.537 399.97,14.537 399.5,15.5C 400.32,17.9738 401.32,20.3071 402.5,22.5C 401.833,22.5 401.5,22.8333 401.5,23.5C 397.997,19.9695 396.663,15.6361 397.5,10.5C 395.678,10.8308 394.011,11.4975 392.5,12.5C 392.76,10.405 393.926,9.07166 396,8.5C 398.378,10.3807 400.211,12.7141 401.5,15.5 Z"/></g>
<g><path style="opacity:1" fill="#5b402f" d="M 328.5,114.5 C 326.837,116.438 326.171,118.772 326.5,121.5C 323.965,125.355 322.965,129.688 323.5,134.5C 322.724,140.821 322.058,147.154 321.5,153.5C 319.763,156.008 318.93,159.008 319,162.5C 318.333,177.5 318.333,192.5 319,207.5C 319.429,212.047 320.262,216.381 321.5,220.5C 321.5,221.167 321.5,221.833 321.5,222.5C 321.111,225.553 321.777,228.22 323.5,230.5C 323.5,231.167 323.5,231.833 323.5,232.5C 323.294,235.495 323.96,238.162 325.5,240.5C 327.73,246.687 329.897,253.021 332,259.5C 334.71,263.588 336.877,267.921 338.5,272.5C 333.861,272.176 330.194,270.176 327.5,266.5C 325.5,263.833 323.167,261.5 320.5,259.5C 318.1,257.704 316.433,255.37 315.5,252.5C 315.293,249.759 314.293,247.426 312.5,245.5C 311.069,244.22 310.402,242.553 310.5,240.5C 310.277,236.838 309.277,233.505 307.5,230.5C 306.226,228.007 305.56,225.341 305.5,222.5C 305.785,219.171 305.118,216.171 303.5,213.5C 302.532,211.393 302.198,209.059 302.5,206.5C 301.834,198.517 301.501,190.517 301.5,182.5C 301.355,168.817 301.688,155.15 302.5,141.5C 302.279,138.721 302.612,136.054 303.5,133.5C 305.04,131.162 305.706,128.495 305.5,125.5C 305.5,125.167 305.5,124.833 305.5,124.5C 306.924,122.485 307.59,120.152 307.5,117.5C 313.668,92.1595 325.335,69.8262 342.5,50.5C 347.2,45.801 351.534,40.801 355.5,35.5C 363.996,25.8359 373.829,17.8359 385,11.5C 385.5,11.8333 386,12.1667 386.5,12.5C 359.372,42.0927 340.038,76.0927 328.5,114.5 Z"/></g>
<g><path style="opacity:1" fill="#5d4433" d="M 401.5,15.5 C 422.928,42.0174 444.594,68.3507 466.5,94.5C 466.918,95.2216 467.584,95.7216 468.5,96C 473.333,96.1667 478.167,96.3333 483,96.5C 489.746,96.7204 496.246,96.0537 502.5,94.5C 528.918,90.2553 553.251,80.922 575.5,66.5C 578.394,65.1177 580.894,63.1177 583,60.5C 583.483,61.448 583.649,62.448 583.5,63.5C 581.6,67.7321 578.933,71.3988 575.5,74.5C 573.413,75.5846 572.08,77.2512 571.5,79.5C 567.083,84.2531 562.083,88.2531 556.5,91.5C 554.952,91.8212 554.285,92.8212 554.5,94.5C 559.032,94.8182 563.366,94.4849 567.5,93.5C 572.062,92.3721 576.728,91.7054 581.5,91.5C 584.495,91.7062 587.162,91.0395 589.5,89.5C 608.32,84.5602 626.653,78.2268 644.5,70.5C 647.241,70.2927 649.574,69.2927 651.5,67.5C 658.545,63.1577 665.878,59.1577 673.5,55.5C 674.167,55.8333 674.833,56.1667 675.5,56.5C 641.539,81.4855 604.873,101.819 565.5,117.5C 562.759,117.707 560.426,118.707 558.5,120.5C 554.183,122.94 549.517,124.607 544.5,125.5C 539.167,126.833 533.833,126.833 528.5,125.5C 522.662,123.78 517.329,121.114 512.5,117.5C 510.761,115.618 508.594,114.285 506,113.5C 504.743,113.85 504.409,114.517 505,115.5C 506.129,117.141 507.629,118.141 509.5,118.5C 513.732,120.4 517.399,123.067 520.5,126.5C 521.585,128.587 523.251,129.92 525.5,130.5C 526.167,130.5 526.5,130.833 526.5,131.5C 527.911,133.914 529.911,135.581 532.5,136.5C 534.341,137.402 535.674,138.736 536.5,140.5C 543.5,148.167 550.833,155.5 558.5,162.5C 573.693,178.365 587.026,195.698 598.5,214.5C 598.167,214.833 597.833,215.167 597.5,215.5C 574.675,189.336 549.675,165.669 522.5,144.5C 521.415,142.413 519.749,141.08 517.5,140.5C 508.725,134.605 499.725,128.938 490.5,123.5C 490.167,123.833 489.833,124.167 489.5,124.5C 493.879,131.249 496.546,138.582 497.5,146.5C 497.294,149.495 497.96,152.162 499.5,154.5C 500.793,162.829 500.627,171.162 499,179.5C 498,180.833 497,180.833 496,179.5C 495.503,176.854 495.336,174.187 495.5,171.5C 495.829,168.772 495.163,166.438 493.5,164.5C 489.161,152.128 483.494,140.461 476.5,129.5C 475.567,126.63 473.9,124.296 471.5,122.5C 452.81,96.4659 434.476,70.1326 416.5,43.5C 415.277,39.9505 413.277,36.9505 410.5,34.5C 408.408,31.319 406.075,28.319 403.5,25.5C 403.672,24.5084 403.338,23.8417 402.5,23.5C 402.5,23.1667 402.5,22.8333 402.5,22.5C 401.32,20.3071 400.32,17.9738 399.5,15.5C 399.97,14.537 400.637,14.537 401.5,15.5 Z"/></g>
<g><path style="opacity:1" fill="#908e8e" d="M 410.5,34.5 C 413.277,36.9505 415.277,39.9505 416.5,43.5C 413.759,41.0246 411.759,38.0246 410.5,34.5 Z"/></g>
<g><path style="opacity:1" fill="#a9531c" d="M 694.5,42.5 C 695.097,42.7352 695.43,43.2352 695.5,44C 694.016,47.1305 692.683,50.2971 691.5,53.5C 690.662,53.8417 690.328,54.5084 690.5,55.5C 689.974,57.2303 688.974,58.5637 687.5,59.5C 686.094,59.9731 685.427,60.9731 685.5,62.5C 685.167,63.5 684.5,64.1667 683.5,64.5C 682.094,64.9731 681.427,65.9731 681.5,67.5C 681.5,68.1667 681.167,68.5 680.5,68.5C 679.094,68.9731 678.427,69.9731 678.5,71.5C 678.5,72.1667 678.167,72.5 677.5,72.5C 675.738,73.2623 674.738,74.5956 674.5,76.5C 674.5,77.1667 674.167,77.5 673.5,77.5C 671.738,78.2623 670.738,79.5956 670.5,81.5C 670.5,82.8333 669.833,83.5 668.5,83.5C 667.094,83.9731 666.427,84.9731 666.5,86.5C 665.167,88.5 663.5,90.1667 661.5,91.5C 658.427,93.5691 656.094,96.2358 654.5,99.5C 651.5,103.167 648.167,106.5 644.5,109.5C 641.911,110.419 639.911,112.086 638.5,114.5C 637.5,116.167 636.167,117.5 634.5,118.5C 632.973,118.427 631.973,119.094 631.5,120.5C 627.98,124.281 623.98,127.614 619.5,130.5C 617.973,130.427 616.973,131.094 616.5,132.5C 616.5,133.167 616.167,133.5 615.5,133.5C 613.973,133.427 612.973,134.094 612.5,135.5C 609.071,139.262 605.071,142.262 600.5,144.5C 598.738,145.262 597.738,146.596 597.5,148.5C 594.822,151.182 593.489,154.515 593.5,158.5C 595.082,163.885 596.415,169.218 597.5,174.5C 597.5,174.833 597.5,175.167 597.5,175.5C 597.66,177.153 598.326,178.486 599.5,179.5C 600.773,181.713 601.773,184.046 602.5,186.5C 602.402,188.553 603.069,190.22 604.5,191.5C 606.539,192.911 607.539,194.911 607.5,197.5C 607.427,199.027 608.094,200.027 609.5,200.5C 611.692,203.55 613.358,206.883 614.5,210.5C 614.427,212.027 615.094,213.027 616.5,213.5C 623.433,225.701 630.1,238.034 636.5,250.5C 636.893,252.284 637.559,253.95 638.5,255.5C 640.746,260.316 643.746,264.65 647.5,268.5C 653.186,278.693 659.519,288.527 666.5,298C 669.366,299.457 672.366,299.79 675.5,299C 680.165,297.389 684.832,295.889 689.5,294.5C 689.031,297.643 687.364,299.977 684.5,301.5C 682.251,302.08 680.585,303.413 679.5,305.5C 670.137,315.197 660.47,324.53 650.5,333.5C 649.883,333.611 649.383,333.944 649,334.5C 648.5,341.158 648.334,347.825 648.5,354.5C 648.5,355.167 648.5,355.833 648.5,356.5C 647.343,359.273 646.676,362.273 646.5,365.5C 646.08,369.007 645.08,372.341 643.5,375.5C 641.194,372.907 639.361,369.907 638,366.5C 636.451,356.111 634.951,345.778 633.5,335.5C 637.402,333.107 640.902,330.107 644,326.5C 647.955,321.422 651.789,316.256 655.5,311C 650.027,299.888 644.694,288.721 639.5,277.5C 639.573,275.973 638.906,274.973 637.5,274.5C 632.646,266.792 628.312,258.792 624.5,250.5C 624.573,248.973 623.906,247.973 622.5,247.5C 620.44,244.76 618.774,241.76 617.5,238.5C 617.573,236.973 616.906,235.973 615.5,235.5C 614.662,235.158 614.328,234.492 614.5,233.5C 614.573,231.973 613.906,230.973 612.5,230.5C 612.573,228.973 611.906,227.973 610.5,227.5C 609.662,227.158 609.328,226.492 609.5,225.5C 609.573,223.973 608.906,222.973 607.5,222.5C 603.414,217.335 600.08,211.668 597.5,205.5C 597.573,203.973 596.906,202.973 595.5,202.5C 595.573,200.973 594.906,199.973 593.5,199.5C 592.11,198.101 591.11,196.434 590.5,194.5C 590.573,192.973 589.906,191.973 588.5,191.5C 587.026,190.564 586.026,189.23 585.5,187.5C 585.573,185.973 584.906,184.973 583.5,184.5C 583.573,182.973 582.906,181.973 581.5,181.5C 579.255,178.68 577.255,175.68 575.5,172.5C 575.573,170.973 574.906,169.973 573.5,169.5C 568.791,163.325 567.291,156.325 569,148.5C 569.377,147.058 570.21,146.058 571.5,145.5C 572.906,145.027 573.573,144.027 573.5,142.5C 573.833,141.5 574.5,140.833 575.5,140.5C 577.027,140.573 578.027,139.906 578.5,138.5C 580.234,135.8 582.568,133.8 585.5,132.5C 587.027,132.573 588.027,131.906 588.5,130.5C 590.027,130.573 591.027,129.906 591.5,128.5C 591.5,127.833 591.833,127.5 592.5,127.5C 594.027,127.573 595.027,126.906 595.5,125.5C 596.436,124.026 597.77,123.026 599.5,122.5C 601.027,122.573 602.027,121.906 602.5,120.5C 606.104,117.025 610.104,114.025 614.5,111.5C 616.027,111.573 617.027,110.906 617.5,109.5C 617.5,108.833 617.833,108.5 618.5,108.5C 620.027,108.573 621.027,107.906 621.5,106.5C 622.436,105.026 623.77,104.026 625.5,103.5C 627.027,103.573 628.027,102.906 628.5,101.5C 629.436,100.026 630.77,99.0256 632.5,98.5C 634.027,98.573 635.027,97.9063 635.5,96.5C 635.5,95.8333 635.833,95.5 636.5,95.5C 638.027,95.573 639.027,94.9063 639.5,93.5C 639.833,92.5 640.5,91.8333 641.5,91.5C 643.027,91.573 644.027,90.9063 644.5,89.5C 644.5,88.8333 644.833,88.5 645.5,88.5C 647.027,88.573 648.027,87.9063 648.5,86.5C 648.833,85.5 649.5,84.8333 650.5,84.5C 652.027,84.573 653.027,83.9063 653.5,82.5C 654.5,80.8333 655.833,79.5 657.5,78.5C 659.404,78.2624 660.738,77.2624 661.5,75.5C 664.833,71.5 668.5,67.8333 672.5,64.5C 676.167,62.8333 678.833,60.1667 680.5,56.5C 684.833,51.5 689.5,46.8333 694.5,42.5 Z"/></g>
<g><path style="opacity:1" fill="#898686" d="M 355.5,35.5 C 351.534,40.801 347.2,45.801 342.5,50.5C 345.719,44.6087 350.052,39.6087 355.5,35.5 Z"/></g>
<g><path style="opacity:1" fill="#604635" d="M 694.5,69.5 C 692.777,71.78 692.111,74.4467 692.5,77.5C 691.105,81.5909 690.438,85.9242 690.5,90.5C 690.147,96.6198 689.147,102.62 687.5,108.5C 686.087,111.219 685.42,114.219 685.5,117.5C 685.265,123.007 684.265,128.34 682.5,133.5C 681.232,135.905 680.565,138.572 680.5,141.5C 675.936,168.29 666.103,192.957 651,215.5C 650.007,218.474 649.174,221.474 648.5,224.5C 647.054,230.274 646.388,236.274 646.5,242.5C 646.225,251.221 646.558,259.887 647.5,268.5C 643.746,264.65 640.746,260.316 638.5,255.5C 639.338,255.158 639.672,254.492 639.5,253.5C 639.5,253.167 639.5,252.833 639.5,252.5C 638.559,247.93 638.226,243.263 638.5,238.5C 639.825,227.698 639.492,217.032 637.5,206.5C 636.833,201.5 636.167,196.5 635.5,191.5C 636.978,191.238 638.311,191.571 639.5,192.5C 640.501,195.173 642.001,197.507 644,199.5C 650.259,184.643 656.259,169.643 662,154.5C 662.667,153.167 663.333,153.167 664,154.5C 664.179,157.553 664.679,160.553 665.5,163.5C 667.727,158.14 669.727,152.806 671.5,147.5C 672.924,145.485 673.59,143.152 673.5,140.5C 673.878,136.322 674.878,132.322 676.5,128.5C 677.924,126.485 678.59,124.152 678.5,121.5C 682.929,100.344 687.596,79.3445 692.5,58.5C 693.622,56.7116 693.789,54.7116 693,52.5C 692.667,53.1667 692.333,53.8333 692,54.5C 691.601,54.2716 691.435,53.9382 691.5,53.5C 692.683,50.2971 694.016,47.1305 695.5,44C 695.43,43.2352 695.097,42.7352 694.5,42.5C 694.811,41.5222 695.478,40.8555 696.5,40.5C 696.833,42.3333 697.167,44.1667 697.5,46C 696.639,53.8601 695.639,61.6935 694.5,69.5 Z"/></g>
<g><path style="opacity:1" fill="#969495" d="M 692.5,58.5 C 692.715,56.8212 692.048,55.8212 690.5,55.5C 690.328,54.5084 690.662,53.8417 691.5,53.5C 691.435,53.9382 691.601,54.2716 692,54.5C 692.333,53.8333 692.667,53.1667 693,52.5C 693.789,54.7116 693.622,56.7116 692.5,58.5 Z"/></g>
<g><path style="opacity:1" fill="#919090" d="M 680.5,56.5 C 678.833,60.1667 676.167,62.8333 672.5,64.5C 674.833,61.5 677.5,58.8333 680.5,56.5 Z"/></g>
<g><path style="opacity:1" fill="#9d9c9d" d="M 687.5,59.5 C 687.573,61.0269 686.906,62.0269 685.5,62.5C 685.427,60.9731 686.094,59.9731 687.5,59.5 Z"/></g>
<g><path style="opacity:1" fill="#838080" d="M 583.5,63.5 C 583.649,62.448 583.483,61.448 583,60.5C 580.894,63.1177 578.394,65.1177 575.5,66.5C 578.146,63.1877 581.146,60.1877 584.5,57.5C 585.757,59.7986 585.423,61.7986 583.5,63.5 Z"/></g>
<g><path style="opacity:1" fill="#9b9899" d="M 683.5,64.5 C 683.573,66.0269 682.906,67.0269 681.5,67.5C 681.427,65.9731 682.094,64.9731 683.5,64.5 Z"/></g>
<g><path style="opacity:1" fill="#8e8b8c" d="M 651.5,67.5 C 649.574,69.2927 647.241,70.2927 644.5,70.5C 646.426,68.7073 648.759,67.7073 651.5,67.5 Z"/></g>
<g><path style="opacity:1" fill="#999697" d="M 680.5,68.5 C 680.573,70.0269 679.906,71.0269 678.5,71.5C 678.427,69.9731 679.094,68.9731 680.5,68.5 Z"/></g>
<g><path style="opacity:1" fill="#989697" d="M 694.5,69.5 C 694.198,72.3725 693.531,75.0392 692.5,77.5C 692.111,74.4467 692.777,71.78 694.5,69.5 Z"/></g>
<g><path style="opacity:1" fill="#9d9b9c" d="M 677.5,72.5 C 677.262,74.4044 676.262,75.7377 674.5,76.5C 674.738,74.5956 675.738,73.2623 677.5,72.5 Z"/></g>
<g><path style="opacity:1" fill="#8a898a" d="M 661.5,75.5 C 660.738,77.2624 659.404,78.2624 657.5,78.5C 658.262,76.7376 659.596,75.7376 661.5,75.5 Z"/></g>
<g><path style="opacity:1" fill="#9b9a9b" d="M 575.5,74.5 C 574.92,76.7488 573.587,78.4154 571.5,79.5C 572.08,77.2512 573.413,75.5846 575.5,74.5 Z"/></g>
<g><path style="opacity:1" fill="#9f9f9f" d="M 673.5,77.5 C 673.262,79.4044 672.262,80.7377 670.5,81.5C 670.738,79.5956 671.738,78.2623 673.5,77.5 Z"/></g>
<g><path style="opacity:1" fill="#6b6a6a" d="M 679.5,95.5 C 680.058,91.9895 680.724,88.4895 681.5,85C 681.167,83.8333 680.833,82.6667 680.5,81.5C 679.702,83.0777 679.202,84.7444 679,86.5C 678.667,86.1667 678.333,85.8333 678,85.5C 677.722,86.4158 677.222,87.0825 676.5,87.5C 678.214,82.5303 680.048,77.5303 682,72.5C 683.233,69.2655 685.233,66.5989 688,64.5C 686.47,75.247 683.637,85.5804 679.5,95.5 Z"/></g>
<g><path style="opacity:1" fill="#989696" d="M 692.5,77.5 C 692.562,82.0758 691.895,86.4091 690.5,90.5C 690.438,85.9242 691.105,81.5909 692.5,77.5 Z"/></g>
<g><path style="opacity:1" fill="#908e8e" d="M 653.5,82.5 C 653.027,83.9063 652.027,84.573 650.5,84.5C 650.973,83.0937 651.973,82.427 653.5,82.5 Z"/></g>
<g><path style="opacity:1" fill="#9a9999" d="M 668.5,83.5 C 668.573,85.0269 667.906,86.0269 666.5,86.5C 666.427,84.9731 667.094,83.9731 668.5,83.5 Z"/></g>
<g><path style="opacity:1" fill="#494949" d="M 679.5,95.5 C 675.365,108.735 670.532,121.735 665,134.5C 655.649,153.872 645.816,172.872 635.5,191.5C 632.015,196.937 629.682,202.937 628.5,209.5C 631.719,217.954 634.386,226.62 636.5,235.5C 636.285,237.179 636.952,238.179 638.5,238.5C 638.226,243.263 638.559,247.93 639.5,252.5C 638.167,252.833 638.167,253.167 639.5,253.5C 639.672,254.492 639.338,255.158 638.5,255.5C 637.559,253.95 636.893,252.284 636.5,250.5C 637.097,250.265 637.43,249.765 637.5,249C 626.385,223.258 613.385,198.758 598.5,175.5C 598.539,173.776 598.206,173.443 597.5,174.5C 596.415,169.218 595.082,163.885 593.5,158.5C 593.489,154.515 594.822,151.182 597.5,148.5C 599.819,148.008 601.819,147.008 603.5,145.5C 615.349,137.493 628.349,134.326 642.5,136C 644.79,138.079 646.457,140.579 647.5,143.5C 647.833,143.333 648.167,143.167 648.5,143C 658.534,124.765 667.867,106.265 676.5,87.5C 677.222,87.0825 677.722,86.4158 678,85.5C 678.333,85.8333 678.667,86.1667 679,86.5C 679.202,84.7444 679.702,83.0777 680.5,81.5C 680.833,82.6667 681.167,83.8333 681.5,85C 680.724,88.4895 680.058,91.9895 679.5,95.5 Z"/></g>
<g><path style="opacity:1" fill="#919090" d="M 648.5,86.5 C 648.027,87.9063 647.027,88.573 645.5,88.5C 645.973,87.0937 646.973,86.427 648.5,86.5 Z"/></g>
<g><path style="opacity:1" fill="#949192" d="M 589.5,89.5 C 587.162,91.0395 584.495,91.7062 581.5,91.5C 583.905,90.2318 586.572,89.5651 589.5,89.5 Z"/></g>
<g><path style="opacity:1" fill="#999898" d="M 644.5,89.5 C 644.027,90.9063 643.027,91.573 641.5,91.5C 641.973,90.0937 642.973,89.427 644.5,89.5 Z"/></g>
<g><path style="opacity:1" fill="#a6a4a5" d="M 556.5,91.5 C 559.684,93.4136 563.351,94.0803 567.5,93.5C 563.366,94.4849 559.032,94.8182 554.5,94.5C 554.285,92.8212 554.952,91.8212 556.5,91.5 Z"/></g>
<g><path style="opacity:1" fill="#8b8989" d="M 639.5,93.5 C 639.027,94.9063 638.027,95.573 636.5,95.5C 636.973,94.0937 637.973,93.427 639.5,93.5 Z"/></g>
<g><path style="opacity:1" fill="#9e9b9c" d="M 466.5,94.5 C 478.487,95.6895 490.487,95.6895 502.5,94.5C 496.246,96.0537 489.746,96.7204 483,96.5C 478.167,96.3333 473.333,96.1667 468.5,96C 467.584,95.7216 466.918,95.2216 466.5,94.5 Z"/></g>
<g><path style="opacity:1" fill="#888686" d="M 635.5,96.5 C 635.027,97.9063 634.027,98.573 632.5,98.5C 632.973,97.0937 633.973,96.427 635.5,96.5 Z"/></g>
<g><path style="opacity:1" fill="#9b999a" d="M 661.5,91.5 C 659.906,94.7642 657.573,97.4309 654.5,99.5C 656.094,96.2358 658.427,93.5691 661.5,91.5 Z"/></g>
<g><path style="opacity:1" fill="#919191" d="M 628.5,101.5 C 628.027,102.906 627.027,103.573 625.5,103.5C 625.973,102.094 626.973,101.427 628.5,101.5 Z"/></g>
<g><path style="opacity:1" fill="#969495" d="M 621.5,106.5 C 621.027,107.906 620.027,108.573 618.5,108.5C 618.973,107.094 619.973,106.427 621.5,106.5 Z"/></g>
<g><path style="opacity:1" fill="#908e8f" d="M 617.5,109.5 C 617.027,110.906 616.027,111.573 614.5,111.5C 614.973,110.094 615.973,109.427 617.5,109.5 Z"/></g>
<g><path style="opacity:1" fill="#9a9899" d="M 687.5,108.5 C 687.58,111.781 686.913,114.781 685.5,117.5C 685.42,114.219 686.087,111.219 687.5,108.5 Z"/></g>
<g><path style="opacity:1" fill="#a19fa0" d="M 644.5,109.5 C 643.089,111.914 641.089,113.581 638.5,114.5C 639.911,112.086 641.911,110.419 644.5,109.5 Z"/></g>
<g><path style="opacity:1" fill="#908d8e" d="M 512.5,117.5 C 511.209,117.263 510.209,117.596 509.5,118.5C 507.629,118.141 506.129,117.141 505,115.5C 504.409,114.517 504.743,113.85 506,113.5C 508.594,114.285 510.761,115.618 512.5,117.5 Z"/></g>
<g><path style="opacity:1" fill="#949494" d="M 358.5,108.5 C 358.678,112.122 358.011,115.456 356.5,118.5C 356.322,114.878 356.989,111.544 358.5,108.5 Z"/></g>
<g><path style="opacity:1" fill="#999798" d="M 565.5,117.5 C 563.574,119.293 561.241,120.293 558.5,120.5C 560.426,118.707 562.759,117.707 565.5,117.5 Z"/></g>
<g><path style="opacity:1" fill="#979495" d="M 328.5,114.5 C 328.59,117.152 327.924,119.485 326.5,121.5C 326.171,118.772 326.837,116.438 328.5,114.5 Z"/></g>
<g><path style="opacity:1" fill="#9c9a9b" d="M 634.5,118.5 C 634.027,119.906 633.027,120.573 631.5,120.5C 631.973,119.094 632.973,118.427 634.5,118.5 Z"/></g>
<g><path style="opacity:1" fill="#868485" d="M 602.5,120.5 C 602.027,121.906 601.027,122.573 599.5,122.5C 599.973,121.094 600.973,120.427 602.5,120.5 Z"/></g>
<g><path style="opacity:1" fill="#908d8e" d="M 307.5,117.5 C 307.59,120.152 306.924,122.485 305.5,124.5C 305.41,121.848 306.076,119.515 307.5,117.5 Z"/></g>
<g><path style="opacity:1" fill="#969394" d="M 471.5,122.5 C 473.9,124.296 475.567,126.63 476.5,129.5C 474.1,127.704 472.433,125.37 471.5,122.5 Z"/></g>
<g><path style="opacity:1" fill="#8c8a8b" d="M 326.5,121.5 C 325.943,126.052 324.943,130.385 323.5,134.5C 322.965,129.688 323.965,125.355 326.5,121.5 Z"/></g>
<g><path style="opacity:1" fill="#9b999a" d="M 528.5,125.5 C 533.833,126.833 539.167,126.833 544.5,125.5C 542.193,127.047 539.527,127.713 536.5,127.5C 533.473,127.713 530.807,127.047 528.5,125.5 Z"/></g>
<g><path style="opacity:1" fill="#8b8989" d="M 595.5,125.5 C 595.027,126.906 594.027,127.573 592.5,127.5C 592.973,126.094 593.973,125.427 595.5,125.5 Z"/></g>
<g><path style="opacity:1" fill="#959394" d="M 446.5,124.5 C 447.785,127.589 448.451,130.922 448.5,134.5C 446.989,131.456 446.322,128.122 446.5,124.5 Z"/></g>
<g><path style="opacity:1" fill="#929090" d="M 678.5,121.5 C 678.59,124.152 677.924,126.485 676.5,128.5C 676.41,125.848 677.076,123.515 678.5,121.5 Z"/></g>
<g><path style="opacity:1" fill="#929191" d="M 520.5,126.5 C 522.749,127.08 524.415,128.413 525.5,130.5C 523.251,129.92 521.585,128.587 520.5,126.5 Z"/></g>
<g><path style="opacity:1" fill="#898788" d="M 591.5,128.5 C 591.027,129.906 590.027,130.573 588.5,130.5C 588.973,129.094 589.973,128.427 591.5,128.5 Z"/></g>
<g><path style="opacity:1" fill="#939191" d="M 526.5,131.5 C 529.089,132.419 531.089,134.086 532.5,136.5C 529.911,135.581 527.911,133.914 526.5,131.5 Z"/></g>
<g><path style="opacity:1" fill="#959193" d="M 588.5,130.5 C 588.027,131.906 587.027,132.573 585.5,132.5C 585.973,131.094 586.973,130.427 588.5,130.5 Z"/></g>
<g><path style="opacity:1" fill="#a09d9e" d="M 619.5,130.5 C 619.027,131.906 618.027,132.573 616.5,132.5C 616.973,131.094 617.973,130.427 619.5,130.5 Z"/></g>
<g><path style="opacity:1" fill="#908e8e" d="M 305.5,125.5 C 305.706,128.495 305.04,131.162 303.5,133.5C 303.565,130.572 304.232,127.905 305.5,125.5 Z"/></g>
<g><path style="opacity:1" fill="#9e9e9e" d="M 615.5,133.5 C 615.027,134.906 614.027,135.573 612.5,135.5C 612.973,134.094 613.973,133.427 615.5,133.5 Z"/></g>
<g><path style="opacity:1" fill="#a09e9f" d="M 682.5,133.5 C 682.706,136.495 682.04,139.162 680.5,141.5C 680.565,138.572 681.232,135.905 682.5,133.5 Z"/></g>
<g><path style="opacity:1" fill="#918f90" d="M 578.5,138.5 C 578.027,139.906 577.027,140.573 575.5,140.5C 575.973,139.094 576.973,138.427 578.5,138.5 Z"/></g>
<g><path style="opacity:1" fill="#989596" d="M 353.5,137.5 C 353.562,142.076 352.895,146.409 351.5,150.5C 351.438,145.924 352.105,141.591 353.5,137.5 Z"/></g>
<g><path style="opacity:1" fill="#8f8d8e" d="M 536.5,140.5 C 537.239,140.369 537.906,140.536 538.5,141C 545.761,147.756 552.428,154.922 558.5,162.5C 550.833,155.5 543.5,148.167 536.5,140.5 Z"/></g>
<g><path style="opacity:1" fill="#918f8e" d="M 517.5,140.5 C 519.749,141.08 521.415,142.413 522.5,144.5C 520.251,143.92 518.585,142.587 517.5,140.5 Z"/></g>
<g><path style="opacity:1" fill="#939192" d="M 573.5,142.5 C 573.573,144.027 572.906,145.027 571.5,145.5C 571.427,143.973 572.094,142.973 573.5,142.5 Z"/></g>
<g><path style="opacity:1" fill="#929090" d="M 673.5,140.5 C 673.59,143.152 672.924,145.485 671.5,147.5C 671.41,144.848 672.076,142.515 673.5,140.5 Z"/></g>
<g><path style="opacity:1" fill="#9d9a9b" d="M 600.5,144.5 C 601.209,145.404 602.209,145.737 603.5,145.5C 601.819,147.008 599.819,148.008 597.5,148.5C 597.738,146.596 598.738,145.262 600.5,144.5 Z"/></g>
<g><path style="opacity:1" fill="#5a3f2d" d="M 287.5,156.5 C 287.171,159.228 287.837,161.562 289.5,163.5C 290.301,165.042 290.634,166.708 290.5,168.5C 290.933,173.833 291.433,179.166 292,184.5C 292.204,187.797 293.037,190.797 294.5,193.5C 296.041,200.411 297.041,207.411 297.5,214.5C 297.42,217.781 298.087,220.781 299.5,223.5C 301.68,231.22 304.013,238.887 306.5,246.5C 306.707,249.241 307.707,251.574 309.5,253.5C 314.061,260.733 319.727,267.066 326.5,272.5C 325.975,273.192 325.308,273.692 324.5,274C 317.842,274.5 311.175,274.666 304.5,274.5C 299.234,274.189 294.234,274.855 289.5,276.5C 288.833,276.5 288.167,276.5 287.5,276.5C 284.123,276.068 281.123,276.735 278.5,278.5C 275.904,279.265 273.237,279.599 270.5,279.5C 267.572,279.565 264.905,280.232 262.5,281.5C 252.889,284.653 243.223,287.653 233.5,290.5C 230.284,290.345 227.617,291.345 225.5,293.5C 218.333,296.89 210.999,299.89 203.5,302.5C 200.911,302.461 198.911,303.461 197.5,305.5C 184.828,311.834 172.162,318.168 159.5,324.5C 158.417,323.635 158.251,322.635 159,321.5C 181.478,306.525 202.645,289.858 222.5,271.5C 226.833,269.167 230.167,265.833 232.5,261.5C 249.425,243.305 263.092,222.972 273.5,200.5C 276.15,196.551 277.817,192.218 278.5,187.5C 278.5,187.167 278.5,186.833 278.5,186.5C 282.795,178.833 284.462,170.499 283.5,161.5C 282.97,156.113 282.97,150.78 283.5,145.5C 286.398,148.521 287.731,152.187 287.5,156.5 Z"/></g>
<g><path style="opacity:1" fill="#969495" d="M 497.5,146.5 C 499.04,148.838 499.706,151.505 499.5,154.5C 497.96,152.162 497.294,149.495 497.5,146.5 Z"/></g>
<g><path style="opacity:1" fill="#918f8f" d="M 287.5,156.5 C 288.924,158.515 289.59,160.848 289.5,163.5C 287.837,161.562 287.171,159.228 287.5,156.5 Z"/></g>
<g><path style="opacity:1" fill="#898888" d="M 351.5,151.5 C 351.72,156.1 351.054,160.433 349.5,164.5C 349.28,159.9 349.946,155.567 351.5,151.5 Z"/></g>
<g><path style="opacity:1" fill="#a09f9f" d="M 460.5,167.5 C 465.453,167.123 470.119,167.789 474.5,169.5C 469.647,169.187 464.98,168.521 460.5,167.5 Z"/></g>
<g><path style="opacity:1" fill="#655d5a" d="M 302.5,141.5 C 301.688,155.15 301.355,168.817 301.5,182.5C 300.509,176.021 300.176,169.354 300.5,162.5C 300.334,157.156 300.501,151.823 301,146.5C 301.198,144.618 301.698,142.952 302.5,141.5 Z"/></g>
<g><path style="opacity:1" fill="#9a9899" d="M 493.5,164.5 C 495.163,166.438 495.829,168.772 495.5,171.5C 494.076,169.485 493.41,167.152 493.5,164.5 Z"/></g>
<g><path style="opacity:1" fill="#9e9b9c" d="M 573.5,169.5 C 574.906,169.973 575.573,170.973 575.5,172.5C 574.094,172.027 573.427,171.027 573.5,169.5 Z"/></g>
<g><path style="opacity:1" fill="#868585" d="M 283.5,161.5 C 284.462,170.499 282.795,178.833 278.5,186.5C 280.503,178.13 282.169,169.797 283.5,161.5 Z"/></g>
<g><path style="opacity:1" fill="#a29fa0" d="M 597.5,175.5 C 597.833,175.5 598.167,175.5 598.5,175.5C 599.234,176.708 599.567,178.041 599.5,179.5C 598.326,178.486 597.66,177.153 597.5,175.5 Z"/></g>
<g><path style="opacity:1" fill="#797879" d="M 349.5,164.5 C 349.534,168.859 349.201,173.192 348.5,177.5C 348.585,179.333 349.252,180.666 350.5,181.5C 350.553,184.061 349.553,186.061 347.5,187.5C 346.778,179.632 347.445,171.965 349.5,164.5 Z"/></g>
<g><path style="opacity:1" fill="#9a9899" d="M 480.5,181.5 C 475.843,180.259 471.177,180.259 466.5,181.5C 468.679,180.074 471.179,179.408 474,179.5C 476.544,179.336 478.71,180.003 480.5,181.5 Z"/></g>
<g><path style="opacity:1" fill="#a1a0a1" d="M 581.5,181.5 C 582.906,181.973 583.573,182.973 583.5,184.5C 582.094,184.027 581.427,183.027 581.5,181.5 Z"/></g>
<g><path style="opacity:1" fill="#8b898a" d="M 355.5,174.5 C 356.117,174.611 356.617,174.944 357,175.5C 357.998,181.155 358.832,186.822 359.5,192.5C 357.566,186.75 356.232,180.75 355.5,174.5 Z"/></g>
<g><path style="opacity:1" fill="#918f90" d="M 290.5,168.5 C 292.393,176.612 293.727,184.945 294.5,193.5C 293.037,190.797 292.204,187.797 292,184.5C 291.433,179.166 290.933,173.833 290.5,168.5 Z"/></g>
<g><path style="opacity:1" fill="#a09e9f" d="M 321.5,153.5 C 318.88,175.811 318.88,198.144 321.5,220.5C 320.262,216.381 319.429,212.047 319,207.5C 318.333,192.5 318.333,177.5 319,162.5C 318.93,159.008 319.763,156.008 321.5,153.5 Z"/></g>
<g><path style="opacity:1" fill="#a8a7a7" d="M 583.5,184.5 C 584.906,184.973 585.573,185.973 585.5,187.5C 584.094,187.027 583.427,186.027 583.5,184.5 Z"/></g>
<g><path style="opacity:1" fill="#9b9a9a" d="M 400.5,188.5 C 399.504,188.586 398.671,188.252 398,187.5C 397.506,189.134 397.34,190.801 397.5,192.5C 396.539,190.735 396.205,188.735 396.5,186.5C 398.38,186.229 399.713,186.896 400.5,188.5 Z"/></g>
<g><path style="opacity:1" fill="#969495" d="M 602.5,186.5 C 603.931,187.78 604.598,189.447 604.5,191.5C 603.069,190.22 602.402,188.553 602.5,186.5 Z"/></g>
<g><path style="opacity:1" fill="#9b999a" d="M 588.5,191.5 C 589.906,191.973 590.573,192.973 590.5,194.5C 589.094,194.027 588.427,193.027 588.5,191.5 Z"/></g>
<g><path style="opacity:1" fill="#8d8b8c" d="M 278.5,187.5 C 277.817,192.218 276.15,196.551 273.5,200.5C 274.596,195.868 276.263,191.534 278.5,187.5 Z"/></g>
<g><path style="opacity:1" fill="#949393" d="M 607.5,197.5 C 608.906,197.973 609.573,198.973 609.5,200.5C 608.094,200.027 607.427,199.027 607.5,197.5 Z"/></g>
<g><path style="opacity:1" fill="#939192" d="M 300.5,162.5 C 300.176,169.354 300.509,176.021 301.5,182.5C 301.501,190.517 301.834,198.517 302.5,206.5C 300.897,200.079 300.063,193.412 300,186.5C 299.177,178.323 299.344,170.323 300.5,162.5 Z"/></g>
<g><path style="opacity:1" fill="#9f9d9e" d="M 593.5,199.5 C 594.906,199.973 595.573,200.973 595.5,202.5C 594.094,202.027 593.427,201.027 593.5,199.5 Z"/></g>
<g><path style="opacity:1" fill="#969394" d="M 595.5,202.5 C 596.906,202.973 597.573,203.973 597.5,205.5C 596.094,205.027 595.427,204.027 595.5,202.5 Z"/></g>
<g><path style="opacity:1" fill="#757475" d="M 463.5,204.5 C 464.873,204.343 466.207,204.51 467.5,205C 468.833,205.667 468.833,206.333 467.5,207C 455.947,208.994 444.614,208.494 433.5,205.5C 444.486,206.453 455.486,206.619 466.5,206C 465.263,205.768 464.263,205.268 463.5,204.5 Z"/></g>
<g><path style="opacity:1" fill="#a09e9f" d="M 614.5,210.5 C 615.906,210.973 616.573,211.973 616.5,213.5C 615.094,213.027 614.427,212.027 614.5,210.5 Z"/></g>
<g><path style="opacity:1" fill="#959595" d="M 401.5,211.5 C 402.461,213.265 402.795,215.265 402.5,217.5C 400.027,217.912 398.694,216.912 398.5,214.5C 400.854,215.494 401.854,214.494 401.5,211.5 Z"/></g>
<g><path style="opacity:1" fill="#969495" d="M 297.5,214.5 C 298.913,217.219 299.58,220.219 299.5,223.5C 298.087,220.781 297.42,217.781 297.5,214.5 Z"/></g>
<g><path style="opacity:1" fill="#949293" d="M 303.5,213.5 C 305.118,216.171 305.785,219.171 305.5,222.5C 304.343,219.727 303.676,216.727 303.5,213.5 Z"/></g>
<g><path style="opacity:1" fill="#9e9c9d" d="M 607.5,222.5 C 608.906,222.973 609.573,223.973 609.5,225.5C 608.094,225.027 607.427,224.027 607.5,222.5 Z"/></g>
<g><path style="opacity:1" fill="#8e8b8c" d="M 637.5,206.5 C 639.492,217.032 639.825,227.698 638.5,238.5C 636.952,238.179 636.285,237.179 636.5,235.5C 637.222,235.082 637.722,234.416 638,233.5C 638.3,224.498 638.133,215.498 637.5,206.5 Z"/></g>
<g><path style="opacity:1" fill="#a6a6a6" d="M 610.5,227.5 C 611.906,227.973 612.573,228.973 612.5,230.5C 611.094,230.027 610.427,229.027 610.5,227.5 Z"/></g>
<g><path style="opacity:1" fill="#949293" d="M 321.5,222.5 C 322.768,224.905 323.435,227.572 323.5,230.5C 321.777,228.22 321.111,225.553 321.5,222.5 Z"/></g>
<g><path style="opacity:1" fill="#827f80" d="M 364.5,219.5 C 365.979,223.909 366.646,228.576 366.5,233.5C 366.684,238.107 366.017,242.44 364.5,246.5C 365.732,237.505 365.732,228.505 364.5,219.5 Z"/></g>
<g><path style="opacity:1" fill="#9e9d9d" d="M 648.5,224.5 C 648.612,230.726 647.946,236.726 646.5,242.5C 646.388,236.274 647.054,230.274 648.5,224.5 Z"/></g>
<g><path style="opacity:1" fill="#9b999a" d="M 612.5,230.5 C 613.906,230.973 614.573,231.973 614.5,233.5C 613.094,233.027 612.427,232.027 612.5,230.5 Z"/></g>
<g><path style="opacity:1" fill="#9d9c9c" d="M 307.5,230.5 C 309.277,233.505 310.277,236.838 310.5,240.5C 308.723,237.495 307.723,234.162 307.5,230.5 Z"/></g>
<g><path style="opacity:1" fill="#9e9d9d" d="M 615.5,235.5 C 616.906,235.973 617.573,236.973 617.5,238.5C 616.094,238.027 615.427,237.027 615.5,235.5 Z"/></g>
<g><path style="opacity:1" fill="#8f8d8e" d="M 323.5,232.5 C 324.768,234.905 325.435,237.572 325.5,240.5C 323.96,238.162 323.294,235.495 323.5,232.5 Z"/></g>
<g><path style="opacity:1" fill="#969494" d="M 312.5,245.5 C 314.293,247.426 315.293,249.759 315.5,252.5C 313.707,250.574 312.707,248.241 312.5,245.5 Z"/></g>
<g><path style="opacity:1" fill="#939192" d="M 306.5,246.5 C 308.293,248.426 309.293,250.759 309.5,253.5C 307.707,251.574 306.707,249.241 306.5,246.5 Z"/></g>
<g><path style="opacity:1" fill="#a4a2a3" d="M 622.5,247.5 C 623.906,247.973 624.573,248.973 624.5,250.5C 623.094,250.027 622.427,249.027 622.5,247.5 Z"/></g>
<g><path style="opacity:1" fill="#9e9d9e" d="M 320.5,259.5 C 323.167,261.5 325.5,263.833 327.5,266.5C 324.167,265.167 321.833,262.833 320.5,259.5 Z"/></g>
<g><path style="opacity:1" fill="#838180" d="M 232.5,261.5 C 230.167,265.833 226.833,269.167 222.5,271.5C 225.5,267.833 228.833,264.5 232.5,261.5 Z"/></g>
<g><path style="opacity:1" fill="#838182" d="M 358.5,260.5 C 358.586,261.496 358.252,262.329 357.5,263C 359.847,263.334 362.181,263.167 364.5,262.5C 361.88,264.105 359.047,265.438 356,266.5C 354.155,263.636 354.988,261.636 358.5,260.5 Z"/></g>
<g><path style="opacity:1" fill="#fb8117" d="M 587.5,342.5 C 586.218,343.708 586.218,345.042 587.5,346.5C 588.107,346.376 588.44,346.043 588.5,345.5C 590.999,342.831 593.332,339.998 595.5,337C 596.793,336.51 598.127,336.343 599.5,336.5C 594.898,348.941 586.565,358.107 574.5,364C 572.741,364.798 571.074,364.631 569.5,363.5C 578.692,347.989 581.525,331.322 578,313.5C 575.022,300.21 570.355,287.543 564,275.5C 561.259,273.933 560.092,271.599 560.5,268.5C 563.022,268.128 565.022,268.961 566.5,271C 566.167,271.333 565.833,271.667 565.5,272C 582.457,292.433 589.79,315.933 587.5,342.5 Z"/></g>
<g><path style="opacity:1" fill="#a3a2a2" d="M 304.5,274.5 C 299.731,275.889 294.731,276.556 289.5,276.5C 294.234,274.855 299.234,274.189 304.5,274.5 Z"/></g>
<g><path style="opacity:1" fill="#a09f9f" d="M 637.5,274.5 C 638.906,274.973 639.573,275.973 639.5,277.5C 638.094,277.027 637.427,276.027 637.5,274.5 Z"/></g>
<g><path style="opacity:1" fill="#9f9e9e" d="M 287.5,276.5 C 284.727,277.657 281.727,278.324 278.5,278.5C 281.123,276.735 284.123,276.068 287.5,276.5 Z"/></g>
<g><path style="opacity:1" fill="#a09e9f" d="M 270.5,279.5 C 268.162,281.04 265.495,281.706 262.5,281.5C 264.905,280.232 267.572,279.565 270.5,279.5 Z"/></g>
<g><path style="opacity:1" fill="#fc8218" d="M 633.5,335.5 C 634.951,345.778 636.451,356.111 638,366.5C 639.361,369.907 641.194,372.907 643.5,375.5C 645.191,380.547 647.691,385.213 651,389.5C 670.325,414.992 692.492,437.658 717.5,457.5C 717.5,458.833 718.167,459.5 719.5,459.5C 720.833,459.5 721.5,460.167 721.5,461.5C 715.632,458.983 709.632,457.317 703.5,456.5C 704.317,454.692 703.65,453.192 701.5,452C 681.136,437.972 662.97,421.472 647,402.5C 632.072,382.254 621.239,359.921 614.5,335.5C 614.733,334.068 615.4,333.568 616.5,334C 618.592,337.436 620.592,340.936 622.5,344.5C 623.167,345.833 623.833,345.833 624.5,344.5C 622.67,333.522 620.837,322.522 619,311.5C 617.09,302.523 614.256,293.857 610.5,285.5C 610.808,284.692 611.308,284.025 612,283.5C 617.006,289.503 621.006,296.17 624,303.5C 628.101,313.905 631.267,324.572 633.5,335.5 Z"/></g>
<g><path style="opacity:1" fill="#989697" d="M 233.5,290.5 C 231.11,292.02 228.443,293.02 225.5,293.5C 227.617,291.345 230.284,290.345 233.5,290.5 Z"/></g>
<g><path style="opacity:0.999" fill="#a95015" d="M 172.5,548.5 C 171.665,559.345 170.665,570.178 169.5,581C 170.351,591.158 171.018,601.325 171.5,611.5C 166.246,599.63 162.079,587.297 159,574.5C 155.958,559.863 153.291,545.196 151,530.5C 149.339,584.688 161.839,635.188 188.5,682C 188.167,682.5 187.833,683 187.5,683.5C 154.657,641.708 133.824,594.375 125,541.5C 116.154,481.664 130.32,428.164 167.5,381C 165.831,380.878 164.165,381.212 162.5,382C 130.56,401.432 106.56,427.932 90.5,461.5C 89.5489,460.081 89.2155,458.415 89.5,456.5C 119.392,357.106 186.059,303.273 289.5,295C 300.167,294.333 310.833,294.333 321.5,295C 324.371,295.118 327.038,295.784 329.5,297C 289.016,301.585 253.016,316.585 221.5,342C 213.493,349.008 206.159,356.674 199.5,365C 214.535,355.639 230.202,346.972 246.5,339C 250.5,337.333 254.5,335.667 258.5,334C 259.944,333.219 261.277,333.386 262.5,334.5C 199.763,380.477 169.097,442.643 170.5,521C 170.467,530.37 171.133,539.536 172.5,548.5 Z"/></g>
<g><path style="opacity:1" fill="#979596" d="M 203.5,302.5 C 201.819,304.008 199.819,305.008 197.5,305.5C 198.911,303.461 200.911,302.461 203.5,302.5 Z"/></g>
<g><path style="opacity:1" fill="#a88167" d="M 684.5,301.5 C 683.415,303.587 681.749,304.92 679.5,305.5C 680.585,303.413 682.251,302.08 684.5,301.5 Z"/></g>
<g><path style="opacity:1" fill="#9b6e52" d="M 486.5,316.5 C 470.118,316.189 453.785,316.856 437.5,318.5C 453.972,314.755 470.305,314.088 486.5,316.5 Z"/></g>
<g><path style="opacity:1" fill="#a85017" d="M 486.5,316.5 C 491.29,317.725 496.29,318.392 501.5,318.5C 517.053,320.448 530.719,326.448 542.5,336.5C 545.167,339.833 548.167,342.833 551.5,345.5C 556.913,351.097 561.413,357.43 565,364.5C 569.117,372.4 572.951,380.4 576.5,388.5C 576.707,391.241 577.707,393.574 579.5,395.5C 583.128,401.704 585.795,408.371 587.5,415.5C 587.733,418.542 588.733,421.208 590.5,423.5C 593.407,429.099 595.407,435.099 596.5,441.5C 595.325,441.719 594.325,441.386 593.5,440.5C 583.915,425.661 574.081,410.994 564,396.5C 558.945,389.68 553.445,383.347 547.5,377.5C 538.59,376.883 529.59,375.883 520.5,374.5C 506.088,369.093 495.421,359.427 488.5,345.5C 486.276,343.566 483.942,341.899 481.5,340.5C 479.562,338.837 477.228,338.171 474.5,338.5C 472.901,338.768 471.568,338.434 470.5,337.5C 466.764,336.011 462.764,335.344 458.5,335.5C 458.167,335.5 457.833,335.5 457.5,335.5C 450.228,333.983 442.728,333.316 435,333.5C 429.833,333.667 424.667,333.833 419.5,334C 417.618,334.198 415.952,334.698 414.5,335.5C 414.167,335.5 413.833,335.5 413.5,335.5C 408.9,335.28 404.567,335.946 400.5,337.5C 399.432,338.434 398.099,338.768 396.5,338.5C 393.171,338.215 390.171,338.882 387.5,340.5C 387.167,340.5 386.833,340.5 386.5,340.5C 383.848,340.41 381.515,341.076 379.5,342.5C 376.146,342.747 373.146,343.747 370.5,345.5C 368.302,345.591 367.969,344.925 369.5,343.5C 380.903,335.968 393.236,330.301 406.5,326.5C 409.785,326.072 412.785,325.072 415.5,323.5C 419.8,323.245 423.8,322.245 427.5,320.5C 430.829,320.785 433.829,320.118 436.5,318.5C 436.833,318.5 437.167,318.5 437.5,318.5C 453.785,316.856 470.118,316.189 486.5,316.5 Z M 511.5,336.5 C 512.173,343.2 512.173,349.866 511.5,356.5C 510.148,355.476 508.815,354.476 507.5,353.5C 505.246,349.407 503.579,345.073 502.5,340.5C 502.5,338.5 502.5,336.5 502.5,334.5C 505.63,334.7 508.63,335.366 511.5,336.5 Z M 540.5,351.5 C 539.599,352.29 538.932,353.29 538.5,354.5C 537.504,354.414 536.671,354.748 536,355.5C 535.517,354.552 535.351,353.552 535.5,352.5C 536.905,347.915 538.572,347.582 540.5,351.5 Z"/></g>
<g><path style="opacity:1" fill="#9e7459" d="M 486.5,316.5 C 491.766,316.189 496.766,316.855 501.5,318.5C 496.29,318.392 491.29,317.725 486.5,316.5 Z"/></g>
<g><path style="opacity:1" fill="#9c7257" d="M 436.5,318.5 C 433.829,320.118 430.829,320.785 427.5,320.5C 430.219,319.087 433.219,318.42 436.5,318.5 Z"/></g>
<g><path style="opacity:1" fill="#9d7256" d="M 427.5,320.5 C 423.8,322.245 419.8,323.245 415.5,323.5C 419.2,321.755 423.2,320.755 427.5,320.5 Z"/></g>
<g><path style="opacity:1" fill="#9d7256" d="M 415.5,323.5 C 412.785,325.072 409.785,326.072 406.5,326.5C 409.084,324.528 412.084,323.528 415.5,323.5 Z"/></g>
<g><path style="opacity:1" fill="#9c7256" d="M 457.5,335.5 C 443.166,334.197 428.832,334.197 414.5,335.5C 415.952,334.698 417.618,334.198 419.5,334C 424.667,333.833 429.833,333.667 435,333.5C 442.728,333.316 450.228,333.983 457.5,335.5 Z"/></g>
<g><path style="opacity:1" fill="#9b7660" d="M 512.5,335.5 C 512.5,336.167 512.167,336.5 511.5,336.5C 508.63,335.366 505.63,334.7 502.5,334.5C 502.5,336.5 502.5,338.5 502.5,340.5C 500.491,338.622 500.158,336.456 501.5,334C 505.327,333.416 508.994,333.916 512.5,335.5 Z"/></g>
<g><path style="opacity:1" fill="#593d2a" d="M 512.5,335.5 C 522.7,338.351 532.2,342.684 541,348.5C 541.74,349.749 541.573,350.749 540.5,351.5C 538.572,347.582 536.905,347.915 535.5,352.5C 534.549,353.919 534.216,355.585 534.5,357.5C 532.075,359.366 529.241,360.366 526,360.5C 520.323,360.071 514.823,358.905 509.5,357C 508.177,356.184 507.511,355.017 507.5,353.5C 508.815,354.476 510.148,355.476 511.5,356.5C 512.173,349.866 512.173,343.2 511.5,336.5C 512.167,336.5 512.5,336.167 512.5,335.5 Z"/></g>
<g><path style="opacity:1" fill="#a37c63" d="M 413.5,335.5 C 409.409,336.895 405.076,337.562 400.5,337.5C 404.567,335.946 408.9,335.28 413.5,335.5 Z"/></g>
<g><path style="opacity:1" fill="#a0755a" d="M 458.5,335.5 C 462.764,335.344 466.764,336.011 470.5,337.5C 466.236,337.656 462.236,336.989 458.5,335.5 Z"/></g>
<g><path style="opacity:1" fill="#a0765b" d="M 542.5,336.5 C 546.5,338.5 549.5,341.5 551.5,345.5C 548.167,342.833 545.167,339.833 542.5,336.5 Z"/></g>
<g><path style="opacity:1" fill="#9c7256" d="M 474.5,338.5 C 477.228,338.171 479.562,338.837 481.5,340.5C 478.933,340.279 476.599,339.612 474.5,338.5 Z"/></g>
<g><path style="opacity:1" fill="#a58068" d="M 396.5,338.5 C 393.727,339.657 390.727,340.324 387.5,340.5C 390.171,338.882 393.171,338.215 396.5,338.5 Z"/></g>
<g><path style="opacity:1" fill="#a0765b" d="M 386.5,340.5 C 384.485,341.924 382.152,342.59 379.5,342.5C 381.515,341.076 383.848,340.41 386.5,340.5 Z"/></g>
<g><path style="opacity:1" fill="#a29b99" d="M 650.5,333.5 C 649.902,340.632 649.235,347.632 648.5,354.5C 648.334,347.825 648.5,341.158 649,334.5C 649.383,333.944 649.883,333.611 650.5,333.5 Z"/></g>
<g><path style="opacity:1" fill="#9e7458" d="M 379.5,342.5 C 376.854,344.253 373.854,345.253 370.5,345.5C 373.146,343.747 376.146,342.747 379.5,342.5 Z"/></g>
<g><path style="opacity:1" fill="#a37c62" d="M 369.5,343.5 C 367.969,344.925 368.302,345.591 370.5,345.5C 369.054,346.613 367.387,346.78 365.5,346C 366.471,344.519 367.804,343.685 369.5,343.5 Z"/></g>
<g><path style="opacity:1" fill="#b5b4b4" d="M 587.5,342.5 C 587.263,343.791 587.596,344.791 588.5,345.5C 588.44,346.043 588.107,346.376 587.5,346.5C 586.218,345.042 586.218,343.708 587.5,342.5 Z"/></g>
<g><path style="opacity:0.184" fill="#958b87" d="M 535.5,352.5 C 535.351,353.552 535.517,354.552 536,355.5C 536.671,354.748 537.504,354.414 538.5,354.5C 537.564,355.974 536.23,356.974 534.5,357.5C 534.216,355.585 534.549,353.919 535.5,352.5 Z"/></g>
<g><path style="opacity:1" fill="#9a9898" d="M 648.5,356.5 C 648.785,359.829 648.118,362.829 646.5,365.5C 646.676,362.273 647.343,359.273 648.5,356.5 Z"/></g>
<g><path style="opacity:0.982" fill="#fe7f00" d="M 348.5,701.5 C 348.5,702.167 348.833,702.5 349.5,702.5C 371.929,716.412 394.262,730.578 416.5,745C 424.484,747.326 431.484,751.326 437.5,757C 439.345,758.128 441.345,758.628 443.5,758.5C 443.842,759.338 444.508,759.672 445.5,759.5C 460.837,766.333 476.837,771.5 493.5,775C 495.623,775.815 497.623,776.815 499.5,778C 407.943,775.589 327.61,744.256 258.5,684C 246.602,672.771 235.435,660.937 225,648.5C 225.895,668.607 228.062,688.607 231.5,708.5C 231.779,711.006 230.946,713.006 229,714.5C 207.769,684.044 189.102,652.044 173,618.5C 172.023,616.26 171.523,613.927 171.5,611.5C 171.018,601.325 170.351,591.158 169.5,581C 170.665,570.178 171.665,559.345 172.5,548.5C 185.923,490.833 216.923,444.999 265.5,411C 297.772,388.119 333.439,372.786 372.5,365C 381.832,363.448 391.165,362.948 400.5,363.5C 398.547,364.761 396.547,365.927 394.5,367C 318.297,387.869 272.464,437.036 257,514.5C 249.776,581.199 270.943,637.033 320.5,682C 329.368,689.259 338.701,695.759 348.5,701.5 Z"/></g>
<g><path style="opacity:1" fill="#956648" d="M 520.5,374.5 C 529.59,375.883 538.59,376.883 547.5,377.5C 546.07,377.421 544.736,377.754 543.5,378.5C 538.219,377.714 532.885,377.214 527.5,377C 524.809,376.844 522.476,376.011 520.5,374.5 Z"/></g>
<g><path style="opacity:1" fill="#9f765a" d="M 576.5,388.5 C 578.293,390.426 579.293,392.759 579.5,395.5C 577.707,393.574 576.707,391.241 576.5,388.5 Z"/></g>
<g><path style="opacity:1" fill="#e4e5e4" d="M 684.5,507.5 C 691.194,508.742 697.86,508.409 704.5,506.5C 696.192,512.016 687.192,516.516 677.5,520C 659.04,538.698 637.374,543.698 612.5,535C 601.776,530.08 591.443,524.58 581.5,518.5C 581.489,516.983 580.823,515.816 579.5,515C 575.325,512.311 571.325,509.477 567.5,506.5C 567.167,506.5 566.833,506.5 566.5,506.5C 536.798,482.145 503.465,464.312 466.5,453C 452.877,449.961 439.21,448.461 425.5,448.5C 424.479,447.998 424.312,447.332 425,446.5C 435.926,441.192 447.426,437.692 459.5,436C 457.645,433.613 455.312,431.946 452.5,431C 443.984,427.661 435.318,424.828 426.5,422.5C 449.126,422.071 470.793,426.571 491.5,436C 512.322,445.904 531.989,457.57 550.5,471C 564.125,481.622 577.458,492.622 590.5,504C 619.686,524.623 650.352,526.956 682.5,511C 683.823,510.184 684.489,509.017 684.5,507.5 Z"/></g>
<g><path style="opacity:1" fill="#9e7459" d="M 587.5,415.5 C 589.267,417.792 590.267,420.458 590.5,423.5C 588.733,421.208 587.733,418.542 587.5,415.5 Z"/></g>
<g><path style="opacity:1" fill="#cba864" d="M 554.5,440.5 C 555.922,440.75 556.922,441.583 557.5,443C 555.511,443.519 554.511,442.686 554.5,440.5 Z"/></g>
<g><path style="opacity:1" fill="#eba42c" d="M 559.5,445.5 C 561.308,445.491 562.975,445.991 564.5,447C 577.956,457.118 591.956,466.451 606.5,475C 611.091,476.864 615.757,478.53 620.5,480C 622.323,484.846 620.656,486.512 615.5,485C 610.108,483.47 605.108,481.137 600.5,478C 585.966,468.091 572.3,457.257 559.5,445.5 Z"/></g>
<g><path style="opacity:1" fill="#cfab69" d="M 560.5,458.5 C 559.761,458.631 559.094,458.464 558.5,458C 559.437,457.308 560.103,457.475 560.5,458.5 Z"/></g>
<g><path style="opacity:1" fill="#454545" d="M 703.5,456.5 C 709.632,457.317 715.632,458.983 721.5,461.5C 726.935,467.581 728.435,474.581 726,482.5C 720.763,492.236 713.597,500.236 704.5,506.5C 697.86,508.409 691.194,508.742 684.5,507.5C 678.089,503.695 674.423,498.028 673.5,490.5C 673.5,484.833 673.5,479.167 673.5,473.5C 676.101,465.165 681.768,459.998 690.5,458C 694.77,456.925 699.103,456.425 703.5,456.5 Z"/></g>
<g><path style="opacity:1" fill="#f2a72b" d="M 560.5,458.5 C 562.783,458.608 564.783,459.441 566.5,461C 575.985,468.907 585.651,476.574 595.5,484C 602.535,488.236 609.869,491.902 617.5,495C 618.451,495.718 618.617,496.551 618,497.5C 615.757,499.282 613.257,499.782 610.5,499C 606.888,497.861 603.554,496.194 600.5,494C 586.03,483.358 572.696,471.525 560.5,458.5 Z"/></g>
<g><path style="opacity:1" fill="#8d8b8c" d="M 717.5,457.5 C 718.5,457.833 719.167,458.5 719.5,459.5C 718.167,459.5 717.5,458.833 717.5,457.5 Z"/></g>
<g><path style="opacity:1" fill="#a47e64" d="M 89.5,456.5 C 89.2155,458.415 89.5489,460.081 90.5,461.5C 89.6136,462.776 88.6136,462.776 87.5,461.5C 88.0276,459.664 88.6942,457.997 89.5,456.5 Z"/></g>
<g><path style="opacity:1" fill="#8a8889" d="M 673.5,473.5 C 673.5,479.167 673.5,484.833 673.5,490.5C 670.914,484.822 670.914,479.156 673.5,473.5 Z"/></g>
<g><path style="opacity:0.997" fill="#fb8111" d="M 473.5,490.5 C 485.902,490.302 498.235,491.135 510.5,493C 521.493,495.333 532.493,497.5 543.5,499.5C 543.853,501.635 543.02,502.968 541,503.5C 510.179,499.922 479.679,501.755 449.5,509C 407.531,519.972 380.364,546.139 368,587.5C 366.443,584.706 366.11,581.706 367,578.5C 373.88,538.617 396.38,511.783 434.5,498C 447.356,494.028 460.356,491.528 473.5,490.5 Z"/></g>
<g><path style="opacity:0.972" fill="#fea800" d="M 566.5,506.5 C 566.833,507.833 567.167,507.833 567.5,506.5C 571.325,509.477 575.325,512.311 579.5,515C 580.823,515.816 581.489,516.983 581.5,518.5C 558.185,517.203 536.185,522.369 515.5,534C 508.5,539 501.5,544 494.5,549C 514.369,550.131 532.369,556.464 548.5,568C 550.527,569.396 550.86,571.062 549.5,573C 515.064,575.495 487.898,590.661 468,618.5C 447.677,654.389 448.844,689.556 471.5,724C 470.646,725.022 469.646,725.855 468.5,726.5C 419.462,692.241 402.295,645.907 417,587.5C 435.688,540.89 469.855,513.39 519.5,505C 535.252,503.972 550.918,504.472 566.5,506.5 Z"/></g>
<g><path style="opacity:1" fill="#fea500" d="M 445.5,759.5 C 445.158,758.662 444.492,758.328 443.5,758.5C 441.345,758.628 439.345,758.128 437.5,757C 431.484,751.326 424.484,747.326 416.5,745C 394.262,730.578 371.929,716.412 349.5,702.5C 348.833,702.5 348.5,702.167 348.5,701.5C 305.747,644.941 291.58,581.608 306,511.5C 307.006,506.981 308.506,502.647 310.5,498.5C 305.876,585.871 338.876,655.038 409.5,706C 467.431,742.901 530.431,757.901 598.5,751C 596.285,753.257 593.952,754.59 591.5,755C 543.191,768.148 494.524,769.648 445.5,759.5 Z"/></g>
</svg>
